<svg width="77" xmlns="http://www.w3.org/2000/svg" height="77" id="screenshot-be54b59c-c598-8066-8005-ceac6f7308a7" viewBox="0 0 77 77" xmlns:xlink="http://www.w3.org/1999/xlink" fill="none" version="1.1"><g id="shape-be54b59c-c598-8066-8005-ceac6f7308a7" rx="0" ry="0"><g id="shape-be54b59c-c598-8066-8005-ceac6f7308a9"><g class="fills" id="fills-be54b59c-c598-8066-8005-ceac6f7308a9"><ellipse cy="38.5" stroke-linejoin="round" transform="matrix(1.000000, 0.000000, 0.000000, 1.000000, 0.000000, 0.000000)" style="fill: none;" ry="38.5" fill="none" stroke-linecap="round" rx="38.5" cx="38.5"/></g><g fill="none" stroke-linecap="round" stroke-linejoin="round" id="strokes-c8a7a15f-bc09-801a-8005-dce062b29f70-be54b59c-c598-8066-8005-ceac6f7308a9" class="strokes"><g class="stroke-shape"><ellipse cx="38.5" cy="38.5" rx="38.5" ry="38.5" transform="matrix(1.000000, 0.000000, 0.000000, 1.000000, 0.000000, 0.000000)" style="fill: none; stroke-width: 6; stroke: rgb(81, 81, 81); stroke-opacity: 1;"/></g></g></g><g id="shape-be54b59c-c598-8066-8005-ceac6f7308aa"><g class="fills" id="fills-be54b59c-c598-8066-8005-ceac6f7308aa"><path d="M28.000,60.667L28.000,21.000L44.000,21.000C50.627,21.000,56.000,26.328,56.000,32.900C56.000,39.472,50.627,44.800,44.000,44.800L28.000,44.800" fill="none" stroke-linecap="round" stroke-linejoin="round" style="fill: none;"/></g><g fill="none" stroke-linecap="round" stroke-linejoin="round" id="strokes-c8a7a15f-bc09-801a-8005-dce062b3f0aa-be54b59c-c598-8066-8005-ceac6f7308aa" class="strokes"><g class="stroke-shape"><path d="M28.000,60.667L28.000,21.000L44.000,21.000C50.627,21.000,56.000,26.328,56.000,32.900C56.000,39.472,50.627,44.800,44.000,44.800L28.000,44.800" style="fill: none; stroke-width: 6; stroke: rgb(81, 81, 81); stroke-opacity: 1;"/></g></g></g></g></svg>