<svg id="Layer_1" data-name="Layer 1" xmlns="http://www.w3.org/2000/svg" viewBox="0 0 442.7643 69.2384"><defs><style>.cls-1{fill:#252122;}.cls-2{fill:#231f20;}.cls-3{fill:#242021;}.cls-4{fill:#3c419a;}.cls-5{fill:#3c4199;}.cls-6{fill:#3d419a;}.cls-7{fill:#3e439b;}.cls-8{fill:#454142;}.cls-9{fill:#312d2e;}.cls-10{fill:#302c2d;}.cls-11{fill:#14143a;}.cls-12{fill:#16163c;}</style></defs><path class="cls-1" d="M303.0348,62.1929A6.3022,6.3022,0,0,0,303.56,64.16c-.0678-.6234.0742-1.6461-.2354-1.8087C303.2235,62.2984,303.1317,62.2458,303.0348,62.1929Z"/><path class="cls-1" d="M303.4077,56.82c.7764-.5531.0812-1.7049-.1616-2.5536A8.5038,8.5038,0,0,1,303.4077,56.82Z"/><path class="cls-2" d="M129.9236,43.6868c11.5117.0744,18.6943-7.0838,18.6744-18.6112-.0189-10.9268-7.64-18.6561-18.398-18.6587-10.9092-.0027-18.3277,7.5117-18.3636,18.6008C111.8,36.3489,118.84,43.6152,129.9236,43.6868Zm-5.0445-26.3657a7.4533,7.4533,0,0,1,9.9065-.7943c2.0246,1.6692,2.9921,4.4482,2.9919,8.6111.1925,3.2787-.4037,6.3239-2.975,8.6a7.2777,7.2777,0,0,1-9.8815-.6464C121.7172,29.6584,121.6936,20.7944,124.8791,17.3211Z"/><path class="cls-3" d="M103.3351,43.009c3.322.0588,3.0421-2.2389,3.0353-4.46-.0264-8.4828.0078-16.9659-.0253-25.4487-.0108-2.7713-.2914-5.3525-3.9083-5.8737-5.33-.768-6.3951.0775-6.409,5.5073-.0227,8.85-.02,8.7328-7.5551,8.5417-2.3521-.06-3.2813-.5992-3.118-3.0586a46.6379,46.6379,0,0,0-.2085-6.9655c-.3619-4.3121-3.5861-3.9091-6.6394-4.0669-3.5534-.1835-3.5232,1.9591-3.4637,4.4866.0978,4.156.0265,8.316.0282,12.4743.0017,4.6574.0159,9.3147-.0034,13.9719-.0122,2.9947,1.3911,4.5759,4.4162,4.9035,5.2209.5655,5.9121-.0915,5.918-6.07.0081-8.2555.0027-8.0983,7.8041-7.8381,2.6657.0889,2.9349,1.1828,2.8572,3.3067a35.886,35.886,0,0,0,.239,6.9537C96.9742,43.5639,100.3682,42.9564,103.3351,43.009Z"/><path class="cls-4" d="M401.0764,32.2426c-1.9188-1.9079-1.6282-3.1778.3323-5.1846,6.7624-6.9221,3.4988-17.401-5.9824-19.6789-4.9231-1.1828-9.9059-.8173-14.8377.0648-2.9865.5342-4.6214,2.1968-4.4785,5.5091.1716,3.9815.0405,7.9761.0405,11.9651l.1089,0c0,4.486-.0483,8.9726.0134,13.4578.0624,4.5406,3.25,4.591,6.6229,4.6812,3.8969.1044,3.6545-2.407,3.561-4.992a30.8435,30.8435,0,0,1,.0139-3.4884c.0833-1.072-.5256-2.5127.9661-3.0223,1.6662-.5692,2.2889.81,3.01,1.9329A64.1676,64.1676,0,0,0,395.4,40.9405c2.5407,2.9437,5.8277,3.1736,8.8548.7244,3.1809-2.5738.4239-4.6419-.9893-6.7128A18.512,18.512,0,0,0,401.0764,32.2426Zm-12.0408-8.6257c-3.0117.6365-3.0214-1.4174-2.6872-3.2165.364-1.96-1.8662-5.4157,2.6545-5.3289,2.8762.0552,5.3211.7891,5.3638,4.2858C394.4111,22.9919,391.68,23.36,389.0356,23.6169Z"/><path class="cls-5" d="M319.4207,26.1612c0-4.4812-.096-8.9651.0295-13.4428.1044-3.7217-1.4324-5.202-5.2293-5.5977-5.8248-.6069-4.934,3.0778-4.9577,6.5485-.06,8.7039.9818,7.0572-5.5737,7.6417-4.57.4075-5.899-1.2156-5.2714-5.459a16.2222,16.2222,0,0,0-.1034-4.9611c-.6987-4.1929-4.0219-3.5713-6.9927-3.6727-2.9407-.1-3.0344,1.7082-3.0207,3.9015.0561,8.962.0769,17.925.0095,26.8868-.0335,4.4485,2.727,4.91,6.2485,5.0732,4.0828.19,4.0738-2.2286,3.9258-5.1051-.1106-2.1518-.0332-4.3142-.008-6.4715.0112-.9655-.1435-2.21,1.2834-2.2142,2.9612-.0091,6.2073-.5614,8.7867.4767,1.798.7236.4765,3.9441.7194,6.033.1335,1.15.0173,2.3319.18,3.4757.56,3.9242,3.5684,3.6336,6.4339,3.7672,3.3523.1562,3.6855-1.7458,3.582-4.434C319.3035,34.4642,319.4209,30.31,319.4207,26.1612Z"/><path class="cls-4" d="M442.5157,39.33c-2.6-9.4064-5.4032-18.7587-8.2562-28.0924C433.017,7.1724,429.37,7.1515,426.0776,7.21c-3.21.0571-6.7-.2112-8.0488,4.0806-2.6772,8.5164-5.6118,16.9514-8.3679,25.4435-.9131,2.8139-.7656,5.6121,2.75,6.2248,3.1235.5442,6.9513,1.3937,7.5176-3.674.2968-2.6579,1.2085-4.457,4.3381-3.9393,2.8855.4773,6.92-1.7283,7.7063,3.5191.4673,3.1181,2.4458,4.57,6.1947,4.2664C439.7546,42.5587,443.802,43.9831,442.5157,39.33Zm-14.358-12.1258a6.4435,6.4435,0,0,1-4.3216-.0832c-1.6359-.6969-.5013-2.28-.1789-3.4159.5706-2.0085,1.3339-3.9622,2.0165-5.9389l1.0365.0732c.5491,2.0145,1.2236,4.0062,1.5967,6.0529C428.5044,24.976,430.1053,26.5071,428.1577,27.2042Z"/><path class="cls-3" d="M206.7191,34.6337c-2.9754.1912-5.9747-.0238-8.96.06-2.04.0572-2.9657-.59-2.9834-2.8291-.0173-2.1985.7475-2.9546,2.8779-2.8549,2.4839.1163,4.9812.0855,7.4672-.0151,3.0887-.1249,3.6842-2.1262,3.6095-4.8052-.0761-2.7282-1.5335-3.3017-3.8843-3.1759-2.3174.124-4.6487-.0376-6.97.0455-1.93.0691-3.0978-.2856-3.0978-2.6694,0-2.4,1.2256-2.7058,3.1194-2.6727,2.9866.0521,5.9758.0362,8.9627-.0235,2.8278-.0566,3.6921-1.91,3.552-4.345-.1218-2.1152-.7073-3.7721-3.5235-3.6819-5.4722.1752-10.9541.025-16.4315.0634-3.9178.0275-5.6835,2.1158-5.6191,5.9793.0609,3.6529.013,7.3077.0134,10.9616q0,6.2285.0011,12.4567c.0024,3.2982,1.5378,5.6243,4.875,5.77,5.7978.2532,11.6172.18,17.4221.0311,2.6829-.0689,3.5791-1.9518,3.4844-4.48C210.5378,35.8741,209.6172,34.4475,206.7191,34.6337Z"/><path class="cls-4" d="M282.2655,35.0678c-1.1935-2.6608-2.9946-.7949-4.6022-.3385-4.4909,1.2751-8.6154.9329-11.63-3.1393-2.4812-3.3513-2.32-10.61.3964-13.6547,3.2235-3.6123,7.2391-3.5674,11.4072-1.9058,1.5207.6062,3.0738,1.8068,4.2044-.4118.94-1.8439,1.3493-3.8248-.0694-5.6312a8.2165,8.2165,0,0,0-5.1006-2.8547c-7.5275-1.5-14.45-.406-19.3542,5.9362-5.0264,6.5-5.1267,13.9365-1.9393,21.2554,3.1361,7.2009,9.5406,9.1831,16.8928,9.4528,2.8646-.1588,5.8832-.1768,8.4733-2.0221C283.4755,39.95,283.3489,37.4832,282.2655,35.0678Z"/><path class="cls-1" d="M175.8588,7.3268c-3.3051.264-6.6475.0593-9.9735.0592s-6.6546.0775-9.9777-.0222c-3.2047-.0962-5.5819.5689-5.6488,4.4669-.0686,4.0067,2.2731,4.7595,5.5083,4.2041,3.7848-.65,4.3342,1.2063,4.1991,4.4623-.2412,5.814-.0889,11.6454-.0538,17.4693.0256,4.2486,2.6813,5.0078,6.322,5.1318,4.0241.137,4.1179-2.1124,4.0393-5.0735-.1326-4.9886.1986-9.9975-.1045-14.9711-.2853-4.6816-.0337-8.0761,6.228-7.1133,2.9042.4465,3.8421-1.9751,3.752-4.6457C180.0552,8.5055,178.9751,7.0779,175.8588,7.3268Z"/><path class="cls-6" d="M371.4468,11.0679c-.0988-3.1367-1.7554-3.8611-4.5388-3.7213-3.3133.1665-6.6412.0393-9.9627.0391-3.1555,0-6.3119.0473-9.4661-.0137-3.0524-.059-5.7767.2079-5.9355,4.2094-.1677,4.2263,2.3777,4.973,5.78,4.459,3.3256-.5023,4.2389.881,4.1029,4.1031-.2451,5.8058.0439,11.6322-.1047,17.4444-.1084,4.237,2.1189,5.2821,5.877,5.5148,4.25.2631,4.4578-2.0033,4.3486-5.225-.1745-5.1455.1932-10.3158-.1189-15.4482-.2735-4.494.2636-7.3248,5.92-6.4906C370.4465,16.3956,371.5411,14.0632,371.4468,11.0679Z"/><path class="cls-3" d="M221.1873,42.8954c5.299.2658,10.6235.1905,15.9317.0516,2.9928-.0784,3.7622-2.1106,3.5983-4.8342-.155-2.5768-1.036-3.8773-3.9254-3.8327-3.2548.05-7.5772,1.5379-9.52-.6268-2.0963-2.3357-.4252-6.6586-.66-10.105-.0337-.4961-.0047-.9964-.0047-1.4948h-.036c0-3.4883.1027-6.98-.0253-10.464-.1691-4.6032-3.5275-4.2481-6.8042-4.43-3.8164-.2117-3.29,2.22-3.2866,4.5369.0117,8.4723.0667,16.9453-.0249,25.4166C216.3936,40.516,217.8447,42.7277,221.1873,42.8954Z"/><path class="cls-7" d="M337.2611,37.8966c-.1085-3.9856-.0272-7.9763-.0272-11.9648l-.11,0c0-4.6515.1292-9.3077-.0362-13.9533-.1659-4.6612-3.4821-4.7961-7.0888-4.8039-3.9949-.0086-3.4475,2.6189-3.4416,5.097.0107,4.487-.0106,8.9742.0071,13.4612.0162,4.1532-.0516,8.3115.1337,12.4579.188,4.2027,3.0508,4.8225,6.61,4.9006C337.3552,43.18,337.34,40.7787,337.2611,37.8966Z"/><path class="cls-1" d="M87.8867,53.45a2.29,2.29,0,0,0-2.1042-2.356c-1.37-.1925-2.5325-.1258-3.3164,1.4137-.5379,1.0559-.1575,2.64-1.8765,3.4685-.33-.9343-.5939-1.6626-.8452-2.3951-.7058-2.0568-2.136-2.785-4.2554-2.4686C73.1859,51.4561,73.8738,53.23,73.74,54.6q-.3642,3.72-.6514,7.4473A2.2315,2.2315,0,0,0,75.3135,64.75c1.6211.1015,1.71-1.1271,1.7934-2.3768.0606-.9078-.4494-1.9751.6953-2.8717,1.4541,1.1269,2.5594,3.8655,5.0574,1.6249a4.21,4.21,0,0,1,1.8843-3.2953V63.2c.6113,1.6029,1.8372,1.83,3.2327,1.28,1.255-.4942.7995-1.6944.7288-2.6055C88.4875,59.0624,88.1366,56.26,87.8867,53.45Z"/><path class="cls-1" d="M189.8,53.875a3.4608,3.4608,0,0,1-1.4539.0888c-7.7656-.6094-8.66.3331-7.8569,8.0314.1494,1.4331.2605,2.7282,2.0383,2.7981,1.8777.0738,1.8951-1.2769,2.06-2.6894.2-1.7108-.8316-3.7789,1.0465-5.41,1.766,2.0389.7989,4.1052,1.0328,5.9767a2.2025,2.2025,0,0,0,2.26,2.1435c1.6608.1187,1.6872-1.1155,1.7822-2.3417.1428-1.8463-.5025-3.8325,1.8594-5.5558.1042,1.9169.1851,3.8355.3212,5.75a2.33,2.33,0,0,0,1.8169,2.1091c.9077.2822,1.8789-.0906,1.9368-.9832.1907-2.9372,1.0708-6.103-.5669-8.74C194.6575,52.7689,192.1624,52.97,189.8,53.875Z"/><path class="cls-1" d="M327.5822,53.293c-.88-.2831-1.4994-.5124-1.6161-1.481-.2178-1.8086-1.5107-2.0521-2.9-1.77-1.5935.3237-1.1709,1.7541-1.2193,2.8389-.0588,1.3189-.0139,2.6425-.0082,3.9641.0058,1.6519-.0565,3.3069.0238,4.9549.0755,1.5507.4151,3.1466,2.4311,3.0154,1.8475-.12,1.53-1.7123,1.7394-3.0041.2639-1.6289-1.01-4.59,1.1229-4.602,2.6288-.0145,1.2844,3.06,1.6556,4.7967a8.684,8.684,0,0,1,.05.9876,1.9262,1.9262,0,0,0,1.9387,1.864c1.3069.0519,1.9321-.7031,2.2063-2.1024C333.9834,57.7709,332.4346,54.8532,327.5822,53.293Z"/><path class="cls-1" d="M110.08,50.583c-.4052,3.0166-2.4833,2.608-4.1639,3.1348-2.9154.9139-3.69,3.231-3.6109,5.8067a5.0993,5.0993,0,0,0,3.9143,5.1017c5.2339,1.5872,7.4736-.7073,7.3913-7.8492a26.71,26.71,0,0,0-.059-4.9444C113.12,49.5781,110.2427,49.3709,110.08,50.583Zm-.4035,9.0067c.0552,1.1165-.3872,1.8594-1.6675,1.773-1.4384-.3664-1.516-1.513-1.4249-2.66.0848-1.0675.668-1.8913,1.8358-1.7538C110.0889,57.1453,109.625,58.55,109.6765,59.59Z"/><path class="cls-1" d="M131.7244,54.1866c-2.53-1.8468-3.7528,1.5126-5.9073,1.8343,0-1.1891-.0359-2.0117.0074-2.83.0943-1.7928-.001-3.4007-2.4768-3.18-2.524.2256-1.4219,2.1886-1.4913,3.4047-.1589,2.7917-.0273,5.5989-.0593,8.3994a2.8051,2.8051,0,0,0,1.3762,2.8747c2.896,1.6964,1.9356-3.0672,3.7017-2.2569,1.6.734,2.44,3.4994,4.8447,1.5738.4361-.3492.5032-1.16.74-1.7575v0C127.0281,60.0358,132.5256,56.8235,131.7244,54.1866Z"/><path class="cls-1" d="M91.6913,54.197c-1.79,1.1694-.9437,2.53,1.176,2.7246.96-.9466,2.5258-1.1981,2.6654.0661.1533,1.3878-1.6755.92-2.7363.9836v0c-2.537.8875-3.3792,2.5793-2.0772,4.9734,1.1954,2.1982,6.2281,2.8715,8.5359,1.2778,1.77-1.2225,2.31-7.3109.55-9.1148A6.1244,6.1244,0,0,0,91.6913,54.197Z"/><path class="cls-1" d="M204.3564,53.3618c-3.41.0946-5.5871,1.92-5.6955,5.5578-.1159,3.8835,2.09,5.6751,5.5574,6.0975,3.92-.16,6.1563-2.1647,6.1311-5.8627C210.3242,55.4912,208.1281,53.2573,204.3564,53.3618Zm.075,7.9379c-1.5541-.1034-1.74-1.3593-1.6694-2.553a1.6331,1.6331,0,0,1,1.9336-1.7371c1.3064.1679,1.19,1.37,1.5024,1.977C205.9587,60.2969,205.7557,61.3878,204.4314,61.3Z"/><path class="cls-1" d="M339.9805,53.3638c-3.7349.1853-5.752,2.4691-5.5262,6.2316.2131,3.5512,2.4539,5.4019,5.9124,5.3592,3.771-.0466,5.6641-2.2667,5.8689-5.9467C345.8245,55.2172,343.6871,53.18,339.9805,53.3638Zm.11,8.0126c-1.1705-.0678-1.5992-1.0593-1.5977-2.1262.0016-1.2489.3526-2.3954,1.9016-2.3079,1.22.0689,1.5151,1.09,1.6869,2.1684C341.95,60.3031,341.5913,61.4633,340.0909,61.3764Z"/><path class="cls-1" d="M274.0376,53.3845c-3.3557.0036-5.5565,1.76-5.69,5.4293-.14,3.8382,1.8542,5.9649,5.521,6.1049,3.66.14,5.8486-1.786,5.9469-5.8846C279.7861,55.43,277.6982,53.38,274.0376,53.3845Zm.3788,7.8869c-1.5536.2346-1.9291-.8234-1.9467-2.1289-.0147-1.0962.31-2.0462,1.503-2.1616,1.2978-.1256,1.6064.8608,1.67,1.9408C275.5808,59.8915,275.7363,61.0722,274.4164,61.2714Z"/><path class="cls-1" d="M247.09,53.6365c-2.0336.6512-2.6864,1.922-.527,3.4228,1.2021-1.0412,2.42-1.4059,3.7866-.0775-.966,1.61-2.51.9691-3.8146,1.1157a3.2186,3.2186,0,0,0-1.6822,4.54c.69,1.7213,2.3723,2.2522,4.052,2.3273,2.1108.0945,4.7007.4411,5.67-1.9127,1.0767-2.6153,1.182-5.6892-.6379-8.042C252.261,52.8447,249.537,52.8527,247.09,53.6365Zm3.89,7.5367c-.2884.6486-.7871,1.0674-1.4737.7954a1.2611,1.2611,0,0,1-.6725-.9917c.1274-.7475.7956-.9,1.4539-.7223C250.6921,60.3638,251.2939,60.4625,250.98,61.1732Z"/><path class="cls-1" d="M244.2607,51.3653a2.2014,2.2014,0,0,0-1.0192-1.5867c-1.7569-1.0368-3.4944-.42-5.1695.3692a3.4924,3.4924,0,0,0-1.9286,3.2356c-.1353,2.9607-.1078,5.929-.1346,8.8943-.0142,1.5533.7175,2.6131,2.3076,2.5764,1.8178-.0421,1.7666-1.5017,1.9006-2.8667.1343-1.3688-.8148-3.2362.969-3.9933,5.8943-2.5016,1.3621-3.236-.681-4.4187C241.3013,52.0213,244.1331,53.8717,244.2607,51.3653Z"/><path class="cls-1" d="M366.7336,57.1309c-.4365-2.7147-2.5483-3.7542-5.0592-3.7867-2.5091-.0326-4.6,1.04-5.2525,3.6106-.6238,2.4585-.6155,5.0921,1.75,6.7245,2.1,1.4489,4.6182,2.1405,6.9621.6165,1.7953-1.1673,2.1646-2.54-.6335-2.9869-1.135,1.1409-2.5979,1.3147-3.3955.0273-.73-1.1782.56-1.0656,1.3466-.989C364.3311,59.8614,367.2974,60.6386,366.7336,57.1309Zm-5.8139.91c-.4444-.1067-.9334-.1967-.7422-.8461.2-.6779.6744-1.1044,1.3716-.9142a1.1841,1.1841,0,0,1,.7287.8609C362.2247,57.8917,361.6079,58.0849,360.92,58.0409Z"/><path class="cls-1" d="M139.96,53.4781c-2.6943-.6261-4.7628.5036-6.3675,2.6366a10.9781,10.9781,0,0,0,.0625,6.049,7.102,7.102,0,0,0,7.37,2.6818c2.3056-.4994,2.48-1.5034.8425-3.5937-1.1974,1.109-2.8355,1.5468-3.6386.1277-.7635-1.3494.7841-1.1351,1.6542-1.0881,1.6974-.2768,3.9275.1111,4.0015-2.5233C143.9556,55.2042,142.1879,53.9958,139.96,53.4781Zm-1.5178,4.3292a3.2583,3.2583,0,0,1-1.3132-.2564c.3853-.4777.7707-.9555,1.2579-1.5593l1.0625.9686C139.1169,57.2572,138.8242,57.712,138.4419,57.8073Z"/><path class="cls-1" d="M315.728,57.0084c-.499-2.8006-2.6959-3.6265-5.1609-3.653a5.343,5.343,0,0,0-5.3061,3.72l.0476,4.13c1.7273,3.4355,4.584,4.3529,8.1073,3.4707a2.1793,2.1793,0,0,0,1.95-2.3969c-.1267-1.2135-1.0352-.9761-1.8042-1.0139-1.2373,1.13-2.728,1.4683-3.5071-.1572-.53-1.1057.8179-.7833,1.4965-.7635C313.4829,59.9,316.353,60.5165,315.728,57.0084Zm-5.483,1.03c-.3832.0153-.7786-.2769-1.4966-.56a6.97,6.97,0,0,1,1.574-1.2218,1.198,1.198,0,0,1,1.02.5979C311.4823,57.5852,310.9216,58.0113,310.245,58.0382Z"/><path class="cls-1" d="M218.71,58.0342a2.4175,2.4175,0,0,1-2.701-1.4561,3.1538,3.1538,0,0,1,3.7119.4473c2.0283-1.8781.7109-3.0111-1.0566-3.4727-2.4668-.6444-5.6822-.7253-6.3975,2.0081-.6982,2.6684-.6013,6.3965.8291,8.53,1.4019,2.09,5.251,1.6159,7.136-.3893C222.02,61.7994,221.37,59.36,218.71,58.0342Zm-5.1612,2.59c1.41-.756,2.4416-.5016,3.2314,1.0991C214.9131,62.3112,214.0189,61.9332,213.5486,60.6246Z"/><path class="cls-1" d="M171.8208,58.0132a2.2327,2.2327,0,0,1-2.6462-1.4171,2.9586,2.9586,0,0,1,3.6286.4376c1.339-.7456,1.4541-2.03.4033-2.7426-2.592-1.7568-5.5057-1.6678-7.5044.7489-1.8935,2.29-.8687,4.2716,1.9488,5.2025,1.1916-.161,2.7556.2779,2.2121,1.3932-.5974,1.2259-2.185.52-3.1787-.426-1.9666.2023-2.3545,1.4086-1.0305,2.5494a5.5446,5.5446,0,0,0,7.6177.039C175.74,61.57,174.2844,59.4628,171.8208,58.0132Z"/><path class="cls-1" d="M265.5065,53.7673c-3.333-1.0735-2.097,3.8115-3.3749,5.5851-2.5438-1.1088-.6775-7.1793-4.5662-5.4254-3.35,1.511.4344,5.078.8551,7.7556.3161,2.0112,1.5227,3.3362,3.6914,3.2584,2.288-.0821,3.1083-1.989,3.3312-3.71C265.7734,58.6821,269.8153,55.1551,265.5065,53.7673Z"/><path class="cls-1" d="M353.4451,57.6988c1.4861-.627,2.3967-2.5067.9485-2.763-2.5846-.4574-2.5751-4.7393-5.7933-3.4259-.9441.3854-.7934,1.37-.8259,2.17-.047,1.1607-.0119,2.3248-.0119,3.4875l-.1084.0057a46.3688,46.3688,0,0,0,.4038,5.4444c.3169,1.704,1.8122,2.2615,3.3765,2.3974,1.1547.1,2.3669.1467,3.0312-1.1444,1.0232-1.989-.9319-1.8925-1.7565-2.7145C351.41,59.861,351.5634,58.4929,353.4451,57.6988Z"/><path class="cls-1" d="M227.8982,57.8686c1.2515-.5991,3.0052-1.8724,1.6813-2.5819-2.0628-1.1052-2.7307-4.0523-5.4889-3.9367-1.0586.0444-1.3057.83-1.3229,1.7051-.026,1.3158-.0067,2.6326-.0067,3.9489l.0322,0a42.0557,42.0557,0,0,0,.04,4.9308c.2224,1.8715,1.5906,2.8086,3.3776,3.0444,1.1452.1512,2.4434.2155,3.126-.9223,1.322-2.2032-.978-2.0864-1.904-2.9813C226.3966,60.0743,226.31,58.629,227.8982,57.8686Z"/><path class="cls-1" d="M303.2339,56.9387a.988.988,0,0,0,.1738-.1189,8.5038,8.5038,0,0,0-.1616-2.5536,9.645,9.645,0,0,0-.9934-.02c-2.1929.1738-1.7575-4.38-4.3224-2.7421-2.2865,1.46-.6366,4.2964-1.0387,6.48a9.3159,9.3159,0,0,0-.0139,1.9868c.1738,4.8825,1.5442,5.7393,6.6824,4.1892a6.3022,6.3022,0,0,1-.5253-1.9674C299.8521,60.4571,299.0093,58.8743,303.2339,56.9387Z"/><path class="cls-1" d="M370.2339,49.9864c-1.6055.0863-1.7915,1.0875-1.7822,2.355q.0365,4.9662.018,9.933a2.2929,2.2929,0,0,0,2.3972,2.5664c1.5841.0243,1.6368-1.3209,1.6434-2.5167.009-1.6555.0022-3.3112,0-4.9667s-.0326-3.3119.006-4.9666C372.553,50.7989,372.0093,49.891,370.2339,49.9864Z"/><path class="cls-1" d="M284.929,53.4991c-3.4808.6939-3.7728,3.2021-3.4528,5.6018,0,.9561.0082,1.4531-.0015,1.95-.0326,1.6743-.2191,3.6248,2.1127,3.7342,2.8055.1315,1.6062-2.2223,1.93-3.6237.3383-1.462-.9341-3.348,1.2457-4.3468.9742-.4463,3.1617-.1555,2.14-2.2571C288.1254,52.9564,286.44,53.198,284.929,53.4991Z"/><path class="cls-1" d="M149.0435,53.5113c-3.5191.6322-3.7747,3.1392-3.4913,5.51,0,.7962-.0293,1.1291.0051,1.4551.1766,1.6788-.6532,4.1331,2.0117,4.2805,2.9771.1645,1.7832-2.4463,2.0832-4.0219.2526-1.3265-.7486-3.0066,1.2169-3.8637.9983-.4354,3.1436-.1757,2.0975-2.3252C152.1516,52.8719,150.5376,53.2429,149.0435,53.5113Z"/><path class="cls-1" d="M115.6467,62.4387c-.0051,1.5808.8169,2.543,2.4486,2.3932,1.524-.14,1.6315-1.36,1.6269-2.5835-.013-3.3887.2465-6.8-.9077-10.0858l-2.23.0929C115.083,55.5394,115.6575,59.0191,115.6467,62.4387Z"/><path class="cls-1" d="M291.5081,52.1555c-1.2635,3.3107-.904,6.7664-.9292,10.1917a2.238,2.238,0,0,0,2.4232,2.5042c1.5992.0315,1.7066-1.2662,1.6939-2.4718-.0355-3.3969.3414-6.8355-.9582-10.1131Z"/><path class="cls-1" d="M154.7673,62.5859c-.0471,1.455.8875,2.0728,2.1319,2.2135,1.6355.1848,1.9946-.9882,1.8171-2.2205-.4043-2.8067,1.1431-5.8263-.9119-8.4457l-2.7434.0844C154.9623,57.007,154.8577,59.7963,154.7673,62.5859Z"/><path class="cls-1" d="M162.6353,49.9778c-2.762-.2033-1.951,1.9013-2.23,3.7221-.05.8994-.441,2.5573,1.6429,2.279,2.0225-.27,2.07-2.2871,2.4434-3.79C164.8323,50.8175,164.0306,50.0806,162.6353,49.9778Z"/><path class="cls-1" d="M158.1249,49.253a2.1249,2.1249,0,0,0-2.3507-.1706c-2.6833,1.2541.4133,3.1964-.5281,4.6731a2.6174,2.6174,0,0,0-.1851.4621,1.8377,1.8377,0,0,1,2.7434-.0844C157.2229,52.458,160.291,51.0137,158.1249,49.253Z"/><path class="cls-8" d="M155.061,54.2176l2.7434-.0844A1.8377,1.8377,0,0,0,155.061,54.2176Z"/><path class="cls-9" d="M293.7378,52.2665a1.68,1.68,0,0,0,.3013-2.8773,1.9446,1.9446,0,0,0-2.7249.013c-1.0923.9035-1.1887,1.9285.1939,2.7533A1.6266,1.6266,0,0,1,293.7378,52.2665Z"/><path class="cls-9" d="M291.5081,52.1555l2.23.111A1.6266,1.6266,0,0,0,291.5081,52.1555Z"/><path class="cls-10" d="M119.054,49.4125a1.9532,1.9532,0,0,0-2.73-.0313,1.6726,1.6726,0,0,0,.26,2.8743,1.6308,1.6308,0,0,1,2.23-.0929C120.2086,51.3605,120.1143,50.3156,119.054,49.4125Z"/><path class="cls-10" d="M116.584,52.2555l2.23-.0929A1.6308,1.6308,0,0,0,116.584,52.2555Z"/><path class="cls-2" d="M58.9475,12.8165c0-13.2838,0-13.2838-13.39-12.5758C40.95.4842,38.0823,3.12,38.031,7.7542c-.0974,8.804.0706,17.6108.1282,26.4164,5.3967-3.9872,5.3574-3.9537,9.5517,1.0008a55.876,55.876,0,0,0,4.2019,4.0605l0-.0005c2.5515,2.2078,3.2143,3.7143-.2429,6.3094a79.7455,79.7455,0,0,1-13.6725,8.57h0c-.0044,3.9894.1114,7.9839-.0594,11.9661-.1,2.3237.5225,3.2265,3.0044,3.1252,4.6439-.1895,9.3123-.2518,13.9488.014,3.1923.183,4.1735-.7013,4.1394-4.0388C58.8525,47.7248,58.9475,30.27,58.9475,12.8165Z"/><path class="cls-5" d="M7.65,19.0854C1.2632,33.501,6.1948,45.6518,21.03,52.2806l0-.0008c5.2716-.1555,10.6591.58,15.7343-1.3171,5.829-2.1787,11.1581-5.13,14.5006-10.5934-.0644-.0635-.1091-.1247-.1806-.1891-.9751-.857-2.2039-1.5644-2.8119-2.66-2.3832-4.293-5.6443-5.5494-10.1134-3.35-5.28,4.6848-7.992,5.0644-14.0775,1.97-5.1693-4.78-5.373-10.6214-.83-15.874,2.0618-2.3834,5.67-3.636,5.7871-7.5249l0-.0007L27.7571,11.23a8.2855,8.2855,0,0,1-5.7508-6.103l0-.0008q-.372-.4668-.7437-.9337C16.0974,8.5838,10.5117,12.6275,7.65,19.0854Z"/><path class="cls-5" d="M48.2726,37.5206c.608,1.0952,1.8368,1.8026,2.8119,2.66.0715.0644.1162.1256.1806.1891q.3377-.5515.6477-1.1374a55.876,55.876,0,0,1-4.2019-4.0605c-4.1943-4.9545-4.155-4.988-9.5517-1.0008C42.6283,31.9712,45.8894,33.2276,48.2726,37.5206Z"/><path class="cls-2" d="M4.3027,36.0961C1.46,22.447,9.1045,11.0632,19.7932,4.3367a2.8056,2.8056,0,0,1,1.469-.1447C21.4692,1.5849,21.15-.13,17.6449.1456A139.1689,139.1689,0,0,1,3.2305.201C1.0666.1457-.0132.4517,0,3.083Q.16,34.6814.0247,66.2809c-.0055,2.0224.362,3.0229,2.6877,2.914,3.8047-.178,7.6267.0488,11.4357-.0748,4.3028-.14,6.7484-2.4878,6.9884-6.7918.1659-2.9747-.0022-5.9681-.021-8.9532q-.03-.3812-.0593-.7619C13.7793,51.7259,6.0369,44.4239,4.3027,36.0961Z"/><path class="cls-2" d="M19.7932,4.3367C9.1045,11.0632,1.46,22.447,4.3027,36.0961c1.7342,8.3278,9.4766,15.63,16.7535,16.5171-.0087-.1108-.0174-.2219-.0259-.3326C6.1948,45.6518,1.2632,33.501,7.65,19.0854c2.8613-6.4579,8.447-10.5016,13.6118-14.8934A2.8056,2.8056,0,0,0,19.7932,4.3367Z"/><path class="cls-11" d="M40.9185,51.3807a49.41,49.41,0,0,0,9.7605-6.7346c1.1731-.9674,1.7749-1.9192,1.4633-2.9555-.4155,1.1412-1.5566,1.9721-2.5006,2.8651-8.0135,7.58-17.4,10.4145-28.25,8.1089a.4353.4353,0,0,1,.0151.3209q-.1351.39-.291.39c5.5575,1.85,11.2289,1.0826,16.8821.7352v0C37.803,51.9676,39.7322,51.9548,40.9185,51.3807Z"/><path class="cls-11" d="M51.67,45.5408c3.4572-2.5951,2.7944-4.1016.2429-6.3094l0,.0005h0a3.0629,3.0629,0,0,1,.23,2.4587c.3116,1.0363-.29,1.9881-1.4633,2.9555a49.41,49.41,0,0,1-9.76,6.7346c-1.1863.5741-3.1155.5869-2.9209,2.73v0h0A79.7455,79.7455,0,0,0,51.67,45.5408Z"/><path class="cls-11" d="M36.7645,50.9627C31.6893,52.86,26.3018,52.1243,21.03,52.28l0,.0008,0,0a.8906.8906,0,0,1,.361.3839c10.85,2.3056,20.2368-.5285,28.25-8.1089.944-.893,2.0851-1.7239,2.5006-2.8651a3.207,3.207,0,0,0-.8772-1.3213C47.9226,45.8331,42.5935,48.784,36.7645,50.9627Z"/><path class="cls-11" d="M52.1423,41.6906a3.0629,3.0629,0,0,0-.23-2.4587h0q-.31.5865-.6477,1.1374A3.207,3.207,0,0,1,52.1423,41.6906Z"/><path class="cls-11" d="M21.4065,52.9855a.4353.4353,0,0,0-.0151-.3209l-.0176-.0032c-.1055-.01-.2119-.0353-.3176-.0482q.0294.3809.0593.7619Q21.2717,53.3751,21.4065,52.9855Z"/><path class="cls-11" d="M21.03,52.2807l0,0c.0085.1107.0172.2218.0259.3326.1057.0129.2121.038.3176.0482l.0176.0032A.8906.8906,0,0,0,21.03,52.2807Z"/><path class="cls-12" d="M25.7178,19.7288c-5.1873,5.5943-5.677,9.8606-1.6361,16.4119-2.7731-6.806-.66-12.2288,5.0455-16.272,3.7637-2.667,3.6261-4.7959-.0878-7.1272l0,0C30.5339,16.2983,27.5079,17.798,25.7178,19.7288Z"/><path class="cls-12" d="M23.2522,20.2667c-4.5435,5.2526-4.34,11.0938.83,15.874-4.0409-6.5513-3.5512-10.8176,1.6361-16.4119,1.79-1.9308,4.8161-3.43,3.3215-6.987C28.9226,16.6307,25.314,17.8833,23.2522,20.2667Z"/><path class="cls-5" d="M27.7571,11.23a14.2587,14.2587,0,0,0-5.751-6.1034l0,0A25.66,25.66,0,0,0,27.7571,11.23Z"/><path class="cls-5" d="M27.7571,11.23a25.66,25.66,0,0,1-5.7508-6.103A8.2855,8.2855,0,0,0,27.7571,11.23Z"/></svg>